<svg width="35" height="30" viewBox="0 0 35 30" fill="none" xmlns="http://www.w3.org/2000/svg">
<path d="M33.8333 27.5H31.5V10C31.8094 10 32.1062 9.8683 32.325 9.63388C32.5438 9.39946 32.6667 9.08152 32.6667 8.75C32.6667 8.41848 32.5438 8.10054 32.325 7.86612C32.1062 7.6317 31.8094 7.5 31.5 7.5H24.5V2.5C24.8094 2.5 25.1062 2.3683 25.325 2.13388C25.5438 1.89946 25.6667 1.58152 25.6667 1.25C25.6667 0.918479 25.5438 0.600537 25.325 0.366117C25.1062 0.131696 24.8094 0 24.5 0H3.5C3.19058 0 2.89383 0.131696 2.67504 0.366117C2.45625 0.600537 2.33333 0.918479 2.33333 1.25C2.33333 1.58152 2.45625 1.89946 2.67504 2.13388C2.89383 2.3683 3.19058 2.5 3.5 2.5V27.5H1.16667C0.857247 27.5 0.560501 27.6317 0.341709 27.8661C0.122916 28.1005 0 28.4185 0 28.75C0 29.0815 0.122916 29.3995 0.341709 29.6339C0.560501 29.8683 0.857247 30 1.16667 30H33.8333C34.1427 30 34.4395 29.8683 34.6583 29.6339C34.8771 29.3995 35 29.0815 35 28.75C35 28.4185 34.8771 28.1005 34.6583 27.8661C34.4395 27.6317 34.1427 27.5 33.8333 27.5ZM29.1667 10V27.5H24.5V10H29.1667ZM5.83333 2.5H22.1667V27.5H18.6667V20C18.6667 19.6685 18.5438 19.3505 18.325 19.1161C18.1062 18.8817 17.8094 18.75 17.5 18.75H10.5C10.1906 18.75 9.89383 18.8817 9.67504 19.1161C9.45625 19.3505 9.33333 19.6685 9.33333 20V27.5H5.83333V2.5ZM16.3333 27.5H11.6667V21.25H16.3333V27.5ZM8.16667 7.5C8.16667 7.16848 8.28958 6.85054 8.50838 6.61612C8.72717 6.3817 9.02391 6.25 9.33333 6.25H11.6667C11.9761 6.25 12.2728 6.3817 12.4916 6.61612C12.7104 6.85054 12.8333 7.16848 12.8333 7.5C12.8333 7.83152 12.7104 8.14946 12.4916 8.38388C12.2728 8.6183 11.9761 8.75 11.6667 8.75H9.33333C9.02391 8.75 8.72717 8.6183 8.50838 8.38388C8.28958 8.14946 8.16667 7.83152 8.16667 7.5ZM15.1667 7.5C15.1667 7.16848 15.2896 6.85054 15.5084 6.61612C15.7272 6.3817 16.0239 6.25 16.3333 6.25H18.6667C18.9761 6.25 19.2728 6.3817 19.4916 6.61612C19.7104 6.85054 19.8333 7.16848 19.8333 7.5C19.8333 7.83152 19.7104 8.14946 19.4916 8.38388C19.2728 8.6183 18.9761 8.75 18.6667 8.75H16.3333C16.0239 8.75 15.7272 8.6183 15.5084 8.38388C15.2896 8.14946 15.1667 7.83152 15.1667 7.5ZM8.16667 13.75C8.16667 13.4185 8.28958 13.1005 8.50838 12.8661C8.72717 12.6317 9.02391 12.5 9.33333 12.5H11.6667C11.9761 12.5 12.2728 12.6317 12.4916 12.8661C12.7104 13.1005 12.8333 13.4185 12.8333 13.75C12.8333 14.0815 12.7104 14.3995 12.4916 14.6339C12.2728 14.8683 11.9761 15 11.6667 15H9.33333C9.02391 15 8.72717 14.8683 8.50838 14.6339C8.28958 14.3995 8.16667 14.0815 8.16667 13.75ZM15.1667 13.75C15.1667 13.4185 15.2896 13.1005 15.5084 12.8661C15.7272 12.6317 16.0239 12.5 16.3333 12.5H18.6667C18.9761 12.5 19.2728 12.6317 19.4916 12.8661C19.7104 13.1005 19.8333 13.4185 19.8333 13.75C19.8333 14.0815 19.7104 14.3995 19.4916 14.6339C19.2728 14.8683 18.9761 15 18.6667 15H16.3333C16.0239 15 15.7272 14.8683 15.5084 14.6339C15.2896 14.3995 15.1667 14.0815 15.1667 13.75Z" fill="white"/>
</svg>
